<svg xmlns="http://www.w3.org/2000/svg" viewBox="0 0 32 32" fill="none">
  <rect width="32" height="32" rx="8" fill="#6b558a"/>
  <!-- Tooth shape -->
  <path d="M16 6c-2.8 0-5 1.2-6.2 3.2-.8 1.3-.8 3-.2 4.5.8 2 1.5 4 2.2 6 .4 1.2.8 2.4 1.5 3.2.5.6 1.2.6 1.7 0 .7-1 1.2-2.4 1-3.8 0-.4.3-.6.6-.4.3.2.6.6.6 1 .2 1.4.3 2.8 1 3.2.5.6 1.2.6 1.7 0 .7-.8 1.1-2 1.5-3.2.7-2 1.4-4 2.2-6 .6-1.5.6-3.2-.2-4.5C22 7.2 18.8 6 16 6z" fill="white" opacity="0.95"/>
  <!-- Smile arc under tooth -->
  <path d="M11 21.5c1.5 1.8 3.2 2.5 5 2.5s3.5-.7 5-2.5" stroke="white" stroke-width="1.2" stroke-linecap="round" fill="none" opacity="0.5"/>
</svg>
